<svg width="1000" height="220"><g transform="translate(20, 20)"><g class="dummy-layer" /><g class="main-layer" transform="translate(0, 0)"><g><line class="timeline" x2="960" style="stroke-width: 2px; stroke: #222;" /></g><g class="link-layer"><path class="link" style="stroke: rgb(31, 119, 180); stroke-width: 2; fill: none;" d="M 1.06666667 0.00000000 C 1.06666667 30.00000000 0.00000000 30.00000000 0.00000000 60.00000000 L 0.00000000 73.00000000 C 0.00000000 103.00000000 35.00000000 103.00000000 35.00000000 133.00000000" /><path class="link" style="stroke: rgb(255, 127, 14); stroke-width: 2; fill: none;" d="M 2.13333333 0.00000000 C 2.13333333 30.00000000 3.00000000 30.00000000 3.00000000 60.00000000 L 3.00000000 73.00000000 C 3.00000000 103.00000000 108.00000000 103.00000000 108.00000000 133.00000000" /><path class="link" style="stroke: rgb(44, 160, 44); stroke-width: 2; fill: none;" d="M 3.20000000 0.00000000 C 3.20000000 30.00000000 42.00000000 30.00000000 42.00000000 60.00000000" /><path class="link" style="stroke: rgb(214, 39, 40); stroke-width: 2; fill: none;" d="M 3.20000000 0.00000000 C 3.20000000 30.00000000 115.00000000 30.00000000 115.00000000 60.00000000" /><path class="link" style="stroke: rgb(148, 103, 189); stroke-width: 2; fill: none;" d="M 3.20000000 0.00000000 C 3.20000000 30.00000000 188.00000000 30.00000000 188.00000000 60.00000000" /><path class="link" style="stroke: rgb(140, 86, 75); stroke-width: 2; fill: none;" d="M 324.26666667 0.00000000 C 324.26666667 30.00000000 324.00000000 30.00000000 324.00000000 60.00000000" /><path class="link" style="stroke: rgb(227, 119, 194); stroke-width: 2; fill: none;" d="M 484.26666667 0.00000000 C 484.26666667 30.00000000 411.00000000 30.00000000 411.00000000 60.00000000" /><path class="link" style="stroke: rgb(127, 127, 127); stroke-width: 2; fill: none;" d="M 484.26666667 0.00000000 C 484.26666667 30.00000000 484.00000000 30.00000000 484.00000000 60.00000000" /><path class="link" style="stroke: rgb(188, 189, 34); stroke-width: 2; fill: none;" d="M 484.26666667 0.00000000 C 484.26666667 30.00000000 557.00000000 30.00000000 557.00000000 60.00000000" /><path class="link" style="stroke: rgb(23, 190, 207); stroke-width: 2; fill: none;" d="M 857.60000000 0.00000000 C 857.60000000 30.00000000 811.00000000 30.00000000 811.00000000 60.00000000 L 811.00000000 73.00000000 C 811.00000000 103.00000000 776.00000000 103.00000000 776.00000000 133.00000000" /><path class="link" style="stroke: rgb(31, 119, 180); stroke-width: 2; fill: none;" d="M 857.60000000 0.00000000 C 857.60000000 30.00000000 814.00000000 30.00000000 814.00000000 60.00000000 L 814.00000000 73.00000000 C 814.00000000 103.00000000 849.00000000 103.00000000 849.00000000 133.00000000" /><path class="link" style="stroke: rgb(255, 127, 14); stroke-width: 2; fill: none;" d="M 857.60000000 0.00000000 C 857.60000000 30.00000000 699.00000000 30.00000000 699.00000000 60.00000000" /><path class="link" style="stroke: rgb(44, 160, 44); stroke-width: 2; fill: none;" d="M 857.60000000 0.00000000 C 857.60000000 30.00000000 772.00000000 30.00000000 772.00000000 60.00000000" /><path class="link" style="stroke: rgb(214, 39, 40); stroke-width: 2; fill: none;" d="M 910.93333333 0.00000000 C 910.93333333 30.00000000 852.00000000 30.00000000 852.00000000 60.00000000" /><path class="link" style="stroke: rgb(148, 103, 189); stroke-width: 2; fill: none;" d="M 910.93333333 0.00000000 C 910.93333333 30.00000000 925.00000000 30.00000000 925.00000000 60.00000000" /></g><g class="label-layer"><g class="label-g" transform="translate(0, 133)"><rect class="label-bg" rx="2" ry="2" width="70" height="13.0" style="fill:rgb(31, 119, 180);" /></g><g class="label-g" transform="translate(73, 133)"><rect class="label-bg" rx="2" ry="2" width="70" height="13.0" style="fill:rgb(255, 127, 14);" /></g><g class="label-g" transform="translate(7, 60)"><rect class="label-bg" rx="2" ry="2" width="70" height="13.0" style="fill:rgb(44, 160, 44);" /></g><g class="label-g" transform="translate(80, 60)"><rect class="label-bg" rx="2" ry="2" width="70" height="13.0" style="fill:rgb(214, 39, 40);" /></g><g class="label-g" transform="translate(153, 60)"><rect class="label-bg" rx="2" ry="2" width="70" height="13.0" style="fill:rgb(148, 103, 189);" /></g><g class="label-g" transform="translate(289, 60)"><rect class="label-bg" rx="2" ry="2" width="70" height="13.0" style="fill:rgb(140, 86, 75);" /></g><g class="label-g" transform="translate(376, 60)"><rect class="label-bg" rx="2" ry="2" width="70" height="13.0" style="fill:rgb(227, 119, 194);" /></g><g class="label-g" transform="translate(449, 60)"><rect class="label-bg" rx="2" ry="2" width="70" height="13.0" style="fill:rgb(127, 127, 127);" /></g><g class="label-g" transform="translate(522, 60)"><rect class="label-bg" rx="2" ry="2" width="70" height="13.0" style="fill:rgb(188, 189, 34);" /></g><g class="label-g" transform="translate(741, 133)"><rect class="label-bg" rx="2" ry="2" width="70" height="13.0" style="fill:rgb(23, 190, 207);" /></g><g class="label-g" transform="translate(814, 133)"><rect class="label-bg" rx="2" ry="2" width="70" height="13.0" style="fill:rgb(31, 119, 180);" /></g><g class="label-g" transform="translate(664, 60)"><rect class="label-bg" rx="2" ry="2" width="70" height="13.0" style="fill:rgb(255, 127, 14);" /></g><g class="label-g" transform="translate(737, 60)"><rect class="label-bg" rx="2" ry="2" width="70" height="13.0" style="fill:rgb(44, 160, 44);" /></g><g class="label-g" transform="translate(817, 60)"><rect class="label-bg" rx="2" ry="2" width="70" height="13.0" style="fill:rgb(214, 39, 40);" /></g><g class="label-g" transform="translate(890, 60)"><rect class="label-bg" rx="2" ry="2" width="70" height="13.0" style="fill:rgb(148, 103, 189);" /></g></g><g class="dot-layer"><circle class="dot" r="3" style="fill: rgb(0, 0, 0);" cx="1.0666666666666667" /><circle class="dot" r="3" style="fill: rgb(0, 0, 0);" cx="2.1333333333333333" /><circle class="dot" r="3" style="fill: rgb(0, 0, 0);" cx="3.2" /><circle class="dot" r="3" style="fill: rgb(0, 0, 0);" cx="3.2" /><circle class="dot" r="3" style="fill: rgb(0, 0, 0);" cx="3.2" /><circle class="dot" r="3" style="fill: rgb(0, 0, 0);" cx="324.26666666666665" /><circle class="dot" r="3" style="fill: rgb(0, 0, 0);" cx="484.2666666666667" /><circle class="dot" r="3" style="fill: rgb(0, 0, 0);" cx="484.2666666666667" /><circle class="dot" r="3" style="fill: rgb(0, 0, 0);" cx="484.2666666666667" /><circle class="dot" r="3" style="fill: rgb(0, 0, 0);" cx="857.6" /><circle class="dot" r="3" style="fill: rgb(0, 0, 0);" cx="857.6" /><circle class="dot" r="3" style="fill: rgb(0, 0, 0);" cx="857.6" /><circle class="dot" r="3" style="fill: rgb(0, 0, 0);" cx="857.6" /><circle class="dot" r="3" style="fill: rgb(0, 0, 0);" cx="910.9333333333334" /><circle class="dot" r="3" style="fill: rgb(0, 0, 0);" cx="910.9333333333334" /></g></g></g></svg>