<svg width="400" height="250"><g transform="translate(40, 20)"><g class="dummy-layer" /><g class="main-layer" transform="translate(0, 0)"><g><line class="timeline" y2="210" style="stroke-width: 2px; stroke: #222;" /></g><g class="axis-layer"><g class="tick" transform="translate(0, 0.0000000000000000)" style="opacity: 1;"><line style="stroke-width: 1px; stroke: #222;" x2="-6" y2="0" /><text style="text-anchor: end;" x="-9" y="0" dy=".32em">1975</text></g><g class="tick" transform="translate(0, 23.3304940374787044)" style="opacity: 1;"><line style="stroke-width: 1px; stroke: #222;" x2="-6" y2="0" /><text style="text-anchor: end;" x="-9" y="0" dy=".32em">1980</text></g><g class="tick" transform="translate(0, 46.6737649063032336)" style="opacity: 1;"><line style="stroke-width: 1px; stroke: #222;" x2="-6" y2="0" /><text style="text-anchor: end;" x="-9" y="0" dy=".32em">1985</text></g><g class="tick" transform="translate(0, 70.0042589437819345)" style="opacity: 1;"><line style="stroke-width: 1px; stroke: #222;" x2="-6" y2="0" /><text style="text-anchor: end;" x="-9" y="0" dy=".32em">1990</text></g><g class="tick" transform="translate(0, 93.3347529812606496)" style="opacity: 1;"><line style="stroke-width: 1px; stroke: #222;" x2="-6" y2="0" /><text style="text-anchor: end;" x="-9" y="0" dy=".32em">1995</text></g><g class="tick" transform="translate(0, 116.6652470187393504)" style="opacity: 1;"><line style="stroke-width: 1px; stroke: #222;" x2="-6" y2="0" /><text style="text-anchor: end;" x="-9" y="0" dy=".32em">2000</text></g><g class="tick" transform="translate(0, 140.0085178875638690)" style="opacity: 1;"><line style="stroke-width: 1px; stroke: #222;" x2="-6" y2="0" /><text style="text-anchor: end;" x="-9" y="0" dy=".32em">2005</text></g><g class="tick" transform="translate(0, 163.3390119250425698)" style="opacity: 1;"><line style="stroke-width: 1px; stroke: #222;" x2="-6" y2="0" /><text style="text-anchor: end;" x="-9" y="0" dy=".32em">2010</text></g><g class="tick" transform="translate(0, 186.6695059625212991)" style="opacity: 1;"><line style="stroke-width: 1px; stroke: #222;" x2="-6" y2="0" /><text style="text-anchor: end;" x="-9" y="0" dy=".32em">2015</text></g><g class="tick" transform="translate(0, 210.0000000000000000)" style="opacity: 1;"><line style="stroke-width: 1px; stroke: #222;" x2="-6" y2="0" /><text style="text-anchor: end;" x="-9" y="0" dy=".32em">2020</text></g></g><g class="link-layer"><path class="link" style="stroke: rgb(0, 0, 0); stroke-width: 2; fill: none;" d="M 0.00000000 10.79589012 C 30.00000000 10.79589012 30.00000000 8.00000000 60.00000000 8.00000000" /><path class="link" style="stroke: rgb(0, 0, 0); stroke-width: 2; fill: none;" d="M 0.00000000 24.69708262 C 30.00000000 24.69708262 30.00000000 27.00000000 60.00000000 27.00000000" /><path class="link" style="stroke: rgb(0, 0, 0); stroke-width: 2; fill: none;" d="M 0.00000000 43.46624787 C 30.00000000 43.46624787 30.00000000 46.00000000 60.00000000 46.00000000" /><path class="link" style="stroke: rgb(0, 0, 0); stroke-width: 2; fill: none;" d="M 0.00000000 113.38106899 C 30.00000000 113.38106899 30.00000000 108.00000000 60.00000000 108.00000000" /><path class="link" style="stroke: rgb(0, 0, 0); stroke-width: 2; fill: none;" d="M 0.00000000 127.34614566 C 30.00000000 127.34614566 30.00000000 127.00000000 60.00000000 127.00000000" /><path class="link" style="stroke: rgb(0, 0, 0); stroke-width: 2; fill: none;" d="M 0.00000000 141.38788330 C 30.00000000 141.38788330 30.00000000 146.00000000 60.00000000 146.00000000" /><path class="link" style="stroke: rgb(0, 0, 0); stroke-width: 2; fill: none;" d="M 0.00000000 190.77086882 C 30.00000000 190.77086882 30.00000000 191.00000000 60.00000000 191.00000000" /></g><g class="label-layer"><g class="label-g" transform="translate(60, 0)"><rect class="label-bg" rx="2" ry="2" width="102" height="16.0" style="fill:rgb(0, 0, 0);" /><text class="label-text" dy="0.85em" dx="0.15em" x="2" y="0" style="fill: rgb(255, 255, 255);">1977 - A New Hope</text></g><g class="label-g" transform="translate(60, 19)"><rect class="label-bg" rx="2" ry="2" width="165" height="16.0" style="fill:rgb(0, 0, 0);" /><text class="label-text" dy="0.85em" dx="0.15em" x="2" y="0" style="fill: rgb(255, 255, 255);">1980 - The Empire Strikes Back</text></g><g class="label-g" transform="translate(60, 38)"><rect class="label-bg" rx="2" ry="2" width="130" height="16.0" style="fill:rgb(0, 0, 0);" /><text class="label-text" dy="0.85em" dx="0.15em" x="2" y="0" style="fill: rgb(255, 255, 255);">1984 - Return of the Jedi</text></g><g class="label-g" transform="translate(60, 100)"><rect class="label-bg" rx="2" ry="2" width="149" height="16.0" style="fill:rgb(0, 0, 0);" /><text class="label-text" dy="0.85em" dx="0.15em" x="2" y="0" style="fill: rgb(255, 255, 255);">1999 - The Phantom Menace</text></g><g class="label-g" transform="translate(60, 119)"><rect class="label-bg" rx="2" ry="2" width="142" height="16.0" style="fill:rgb(0, 0, 0);" /><text class="label-text" dy="0.85em" dx="0.15em" x="2" y="0" style="fill: rgb(255, 255, 255);">2002 - Attack of the Clones</text></g><g class="label-g" transform="translate(60, 138)"><rect class="label-bg" rx="2" ry="2" width="137" height="16.0" style="fill:rgb(0, 0, 0);" /><text class="label-text" dy="0.85em" dx="0.15em" x="2" y="0" style="fill: rgb(255, 255, 255);">2005 - Revenge of the Sith</text></g><g class="label-g" transform="translate(60, 183)"><rect class="label-bg" rx="2" ry="2" width="136" height="16.0" style="fill:rgb(0, 0, 0);" /><text class="label-text" dy="0.85em" dx="0.15em" x="2" y="0" style="fill: rgb(255, 255, 255);">2015 - The Force Awakens</text></g></g><g class="dot-layer"><circle class="dot" r="3" style="fill: rgb(0, 0, 0);" cy="10.795890119250426" /><circle class="dot" r="3" style="fill: rgb(0, 0, 0);" cy="24.69708262350937" /><circle class="dot" r="3" style="fill: rgb(0, 0, 0);" cy="43.46624787052811" /><circle class="dot" r="3" style="fill: rgb(0, 0, 0);" cy="113.38106899488928" /><circle class="dot" r="3" style="fill: rgb(0, 0, 0);" cy="127.34614565587735" /><circle class="dot" r="3" style="fill: rgb(0, 0, 0);" cy="141.38788330494037" /><circle class="dot" r="3" style="fill: rgb(0, 0, 0);" cy="190.77086882453153" /></g></g></g></svg>