<svg width="400" height="250"><g transform="translate(20, 20)"><g class="dummy-layer" /><g class="main-layer" transform="translate(360, 0)"><g><line class="timeline" y2="210" style="stroke-width: 2px; stroke: #222;" /></g><g class="link-layer"><path class="link" style="stroke: rgb(119, 119, 119); stroke-width: 2; fill: none;" d="M 0.00000000 10.79589012 C -30.00000000 10.79589012 -30.00000000 9.00000000 -60.00000000 9.00000000" /><path class="link" style="stroke: rgb(119, 119, 119); stroke-width: 2; fill: none;" d="M 0.00000000 24.69708262 C -30.00000000 24.69708262 -30.00000000 26.00000000 -60.00000000 26.00000000" /><path class="link" style="stroke: rgb(119, 119, 119); stroke-width: 2; fill: none;" d="M 0.00000000 43.46624787 C -30.00000000 43.46624787 -30.00000000 43.00000000 -60.00000000 43.00000000" /><path class="link" style="stroke: rgb(119, 119, 119); stroke-width: 2; fill: none;" d="M 0.00000000 113.38106899 C -30.00000000 113.38106899 -30.00000000 110.00000000 -60.00000000 110.00000000" /><path class="link" style="stroke: rgb(119, 119, 119); stroke-width: 2; fill: none;" d="M 0.00000000 127.34614566 C -30.00000000 127.34614566 -30.00000000 127.00000000 -60.00000000 127.00000000" /><path class="link" style="stroke: rgb(119, 119, 119); stroke-width: 2; fill: none;" d="M 0.00000000 141.38788330 C -30.00000000 141.38788330 -30.00000000 144.00000000 -60.00000000 144.00000000" /><path class="link" style="stroke: rgb(119, 119, 119); stroke-width: 2; fill: none;" d="M 0.00000000 190.77086882 C -30.00000000 190.77086882 -30.00000000 191.00000000 -60.00000000 191.00000000" /></g><g class="label-layer"><g class="label-g" transform="translate(-162, 2)"><rect class="label-bg" rx="2" ry="2" width="102" height="14.0" style="fill:rgb(119, 119, 119);" /><text class="label-text" dy="0.85em" dx="0.15em" x="0" y="0" style="fill: rgb(255, 255, 255);">A New Hope - 1977</text></g><g class="label-g" transform="translate(-225, 19)"><rect class="label-bg" rx="2" ry="2" width="165" height="14.0" style="fill:rgb(119, 119, 119);" /><text class="label-text" dy="0.85em" dx="0.15em" x="0" y="0" style="fill: rgb(255, 255, 255);">The Empire Strikes Back - 1980</text></g><g class="label-g" transform="translate(-190, 36)"><rect class="label-bg" rx="2" ry="2" width="130" height="14.0" style="fill:rgb(119, 119, 119);" /><text class="label-text" dy="0.85em" dx="0.15em" x="0" y="0" style="fill: rgb(255, 255, 255);">Return of the Jedi - 1984</text></g><g class="label-g" transform="translate(-209, 103)"><rect class="label-bg" rx="2" ry="2" width="149" height="14.0" style="fill:rgb(119, 119, 119);" /><text class="label-text" dy="0.85em" dx="0.15em" x="0" y="0" style="fill: rgb(255, 255, 255);">The Phantom Menace - 1999</text></g><g class="label-g" transform="translate(-202, 120)"><rect class="label-bg" rx="2" ry="2" width="142" height="14.0" style="fill:rgb(119, 119, 119);" /><text class="label-text" dy="0.85em" dx="0.15em" x="0" y="0" style="fill: rgb(255, 255, 255);">Attack of the Clones - 2002</text></g><g class="label-g" transform="translate(-197, 137)"><rect class="label-bg" rx="2" ry="2" width="137" height="14.0" style="fill:rgb(119, 119, 119);" /><text class="label-text" dy="0.85em" dx="0.15em" x="0" y="0" style="fill: rgb(255, 255, 255);">Revenge of the Sith - 2005</text></g><g class="label-g" transform="translate(-196, 184)"><rect class="label-bg" rx="2" ry="2" width="136" height="14.0" style="fill:rgb(119, 119, 119);" /><text class="label-text" dy="0.85em" dx="0.15em" x="0" y="0" style="fill: rgb(255, 255, 255);">The Force Awakens - 2015</text></g></g><g class="dot-layer"><circle class="dot" r="3" style="fill: rgb(0, 0, 0);" cy="10.795890119250426" /><circle class="dot" r="3" style="fill: rgb(0, 0, 0);" cy="24.69708262350937" /><circle class="dot" r="3" style="fill: rgb(0, 0, 0);" cy="43.46624787052811" /><circle class="dot" r="3" style="fill: rgb(0, 0, 0);" cy="113.38106899488928" /><circle class="dot" r="3" style="fill: rgb(0, 0, 0);" cy="127.34614565587735" /><circle class="dot" r="3" style="fill: rgb(0, 0, 0);" cy="141.38788330494037" /><circle class="dot" r="3" style="fill: rgb(0, 0, 0);" cy="190.77086882453153" /></g></g></g></svg>