<svg width="112" height="1000"><g transform="translate(20, 20)"><g class="dummy-layer" /><g class="main-layer" transform="translate(0, 0)"><g><line class="timeline" y2="960" style="stroke-width: 2px; stroke: #222;" /></g><g class="link-layer"><path class="link" style="stroke: rgb(31, 119, 180); stroke-width: 2; fill: none;" d="M 0.00000000 1.06666667 C 30.00000000 1.06666667 30.00000000 25.00000000 60.00000000 25.00000000" /><path class="link" style="stroke: rgb(255, 127, 14); stroke-width: 2; fill: none;" d="M 0.00000000 2.13333333 C 30.00000000 2.13333333 30.00000000 78.00000000 60.00000000 78.00000000" /><path class="link" style="stroke: rgb(44, 160, 44); stroke-width: 2; fill: none;" d="M 0.00000000 3.20000000 C 30.00000000 3.20000000 30.00000000 131.00000000 60.00000000 131.00000000" /><path class="link" style="stroke: rgb(214, 39, 40); stroke-width: 2; fill: none;" d="M 0.00000000 3.20000000 C 30.00000000 3.20000000 30.00000000 184.00000000 60.00000000 184.00000000" /><path class="link" style="stroke: rgb(148, 103, 189); stroke-width: 2; fill: none;" d="M 0.00000000 3.20000000 C 30.00000000 3.20000000 30.00000000 237.00000000 60.00000000 237.00000000" /><path class="link" style="stroke: rgb(140, 86, 75); stroke-width: 2; fill: none;" d="M 0.00000000 324.26666667 C 30.00000000 324.26666667 30.00000000 324.00000000 60.00000000 324.00000000" /><path class="link" style="stroke: rgb(227, 119, 194); stroke-width: 2; fill: none;" d="M 0.00000000 484.26666667 C 30.00000000 484.26666667 30.00000000 431.00000000 60.00000000 431.00000000" /><path class="link" style="stroke: rgb(127, 127, 127); stroke-width: 2; fill: none;" d="M 0.00000000 484.26666667 C 30.00000000 484.26666667 30.00000000 484.00000000 60.00000000 484.00000000" /><path class="link" style="stroke: rgb(188, 189, 34); stroke-width: 2; fill: none;" d="M 0.00000000 484.26666667 C 30.00000000 484.26666667 30.00000000 537.00000000 60.00000000 537.00000000" /><path class="link" style="stroke: rgb(23, 190, 207); stroke-width: 2; fill: none;" d="M 0.00000000 857.60000000 C 30.00000000 857.60000000 30.00000000 650.00000000 60.00000000 650.00000000" /><path class="link" style="stroke: rgb(31, 119, 180); stroke-width: 2; fill: none;" d="M 0.00000000 857.60000000 C 30.00000000 857.60000000 30.00000000 713.00000000 60.00000000 713.00000000" /><path class="link" style="stroke: rgb(255, 127, 14); stroke-width: 2; fill: none;" d="M 0.00000000 857.60000000 C 30.00000000 857.60000000 30.00000000 776.00000000 60.00000000 776.00000000" /><path class="link" style="stroke: rgb(44, 160, 44); stroke-width: 2; fill: none;" d="M 0.00000000 857.60000000 C 30.00000000 857.60000000 30.00000000 829.00000000 60.00000000 829.00000000" /><path class="link" style="stroke: rgb(214, 39, 40); stroke-width: 2; fill: none;" d="M 0.00000000 910.93333333 C 30.00000000 910.93333333 30.00000000 882.00000000 60.00000000 882.00000000" /><path class="link" style="stroke: rgb(148, 103, 189); stroke-width: 2; fill: none;" d="M 0.00000000 910.93333333 C 30.00000000 910.93333333 30.00000000 935.00000000 60.00000000 935.00000000" /></g><g class="label-layer"><g class="label-g" transform="translate(60, 0)"><rect class="label-bg" rx="2" ry="2" width="13.0" height="50" style="fill:rgb(31, 119, 180);" /></g><g class="label-g" transform="translate(60, 53)"><rect class="label-bg" rx="2" ry="2" width="13.0" height="50" style="fill:rgb(255, 127, 14);" /></g><g class="label-g" transform="translate(60, 106)"><rect class="label-bg" rx="2" ry="2" width="13.0" height="50" style="fill:rgb(44, 160, 44);" /></g><g class="label-g" transform="translate(60, 159)"><rect class="label-bg" rx="2" ry="2" width="13.0" height="50" style="fill:rgb(214, 39, 40);" /></g><g class="label-g" transform="translate(60, 212)"><rect class="label-bg" rx="2" ry="2" width="13.0" height="50" style="fill:rgb(148, 103, 189);" /></g><g class="label-g" transform="translate(60, 299)"><rect class="label-bg" rx="2" ry="2" width="13.0" height="50" style="fill:rgb(140, 86, 75);" /></g><g class="label-g" transform="translate(60, 406)"><rect class="label-bg" rx="2" ry="2" width="13.0" height="50" style="fill:rgb(227, 119, 194);" /></g><g class="label-g" transform="translate(60, 459)"><rect class="label-bg" rx="2" ry="2" width="13.0" height="50" style="fill:rgb(127, 127, 127);" /></g><g class="label-g" transform="translate(60, 512)"><rect class="label-bg" rx="2" ry="2" width="13.0" height="50" style="fill:rgb(188, 189, 34);" /></g><g class="label-g" transform="translate(60, 625)"><rect class="label-bg" rx="2" ry="2" width="13.0" height="50" style="fill:rgb(23, 190, 207);" /></g><g class="label-g" transform="translate(60, 678)"><rect class="label-bg" rx="2" ry="2" width="13.0" height="70" style="fill:rgb(31, 119, 180);" /></g><g class="label-g" transform="translate(60, 751)"><rect class="label-bg" rx="2" ry="2" width="13.0" height="50" style="fill:rgb(255, 127, 14);" /></g><g class="label-g" transform="translate(60, 804)"><rect class="label-bg" rx="2" ry="2" width="13.0" height="50" style="fill:rgb(44, 160, 44);" /></g><g class="label-g" transform="translate(60, 857)"><rect class="label-bg" rx="2" ry="2" width="13.0" height="50" style="fill:rgb(214, 39, 40);" /></g><g class="label-g" transform="translate(60, 910)"><rect class="label-bg" rx="2" ry="2" width="13.0" height="50" style="fill:rgb(148, 103, 189);" /></g></g><g class="dot-layer"><circle class="dot" r="3" style="fill: rgb(0, 0, 0);" cy="1.0666666666666667" /><circle class="dot" r="3" style="fill: rgb(0, 0, 0);" cy="2.1333333333333333" /><circle class="dot" r="3" style="fill: rgb(0, 0, 0);" cy="3.2" /><circle class="dot" r="3" style="fill: rgb(0, 0, 0);" cy="3.2" /><circle class="dot" r="3" style="fill: rgb(0, 0, 0);" cy="3.2" /><circle class="dot" r="3" style="fill: rgb(0, 0, 0);" cy="324.26666666666665" /><circle class="dot" r="3" style="fill: rgb(0, 0, 0);" cy="484.2666666666667" /><circle class="dot" r="3" style="fill: rgb(0, 0, 0);" cy="484.2666666666667" /><circle class="dot" r="3" style="fill: rgb(0, 0, 0);" cy="484.2666666666667" /><circle class="dot" r="3" style="fill: rgb(0, 0, 0);" cy="857.6" /><circle class="dot" r="3" style="fill: rgb(0, 0, 0);" cy="857.6" /><circle class="dot" r="3" style="fill: rgb(0, 0, 0);" cy="857.6" /><circle class="dot" r="3" style="fill: rgb(0, 0, 0);" cy="857.6" /><circle class="dot" r="3" style="fill: rgb(0, 0, 0);" cy="910.9333333333334" /><circle class="dot" r="3" style="fill: rgb(0, 0, 0);" cy="910.9333333333334" /></g></g></g></svg>