<svg width="804" height="120"><g transform="translate(20, 30)"><g class="dummy-layer" /><g class="main-layer" transform="translate(0, 70)"><g><line class="timeline" x2="764" style="stroke-width: 2px; stroke: #222;" /></g><g class="axis-layer"><g class="tick" transform="translate(0.0000000000000000, 0)" style="opacity: 1;"><line style="stroke-width: 1px; stroke: #222;" x2="0" y2="6" /><text style="text-anchor: middle;" x="0" y="9" dy=".71em">0</text></g><g class="tick" transform="translate(84.8888888888888857, 0)" style="opacity: 1;"><line style="stroke-width: 1px; stroke: #222;" x2="0" y2="6" /><text style="text-anchor: middle;" x="0" y="9" dy=".71em">10</text></g><g class="tick" transform="translate(169.7777777777777715, 0)" style="opacity: 1;"><line style="stroke-width: 1px; stroke: #222;" x2="0" y2="6" /><text style="text-anchor: middle;" x="0" y="9" dy=".71em">20</text></g><g class="tick" transform="translate(254.6666666666666572, 0)" style="opacity: 1;"><line style="stroke-width: 1px; stroke: #222;" x2="0" y2="6" /><text style="text-anchor: middle;" x="0" y="9" dy=".71em">30</text></g><g class="tick" transform="translate(339.5555555555555429, 0)" style="opacity: 1;"><line style="stroke-width: 1px; stroke: #222;" x2="0" y2="6" /><text style="text-anchor: middle;" x="0" y="9" dy=".71em">40</text></g><g class="tick" transform="translate(424.4444444444444571, 0)" style="opacity: 1;"><line style="stroke-width: 1px; stroke: #222;" x2="0" y2="6" /><text style="text-anchor: middle;" x="0" y="9" dy=".71em">50</text></g><g class="tick" transform="translate(509.3333333333333144, 0)" style="opacity: 1;"><line style="stroke-width: 1px; stroke: #222;" x2="0" y2="6" /><text style="text-anchor: middle;" x="0" y="9" dy=".71em">60</text></g><g class="tick" transform="translate(594.2222222222222854, 0)" style="opacity: 1;"><line style="stroke-width: 1px; stroke: #222;" x2="0" y2="6" /><text style="text-anchor: middle;" x="0" y="9" dy=".71em">70</text></g><g class="tick" transform="translate(679.1111111111110858, 0)" style="opacity: 1;"><line style="stroke-width: 1px; stroke: #222;" x2="0" y2="6" /><text style="text-anchor: middle;" x="0" y="9" dy=".71em">80</text></g><g class="tick" transform="translate(764.0000000000000000, 0)" style="opacity: 1;"><line style="stroke-width: 1px; stroke: #222;" x2="0" y2="6" /><text style="text-anchor: middle;" x="0" y="9" dy=".71em">90</text></g></g><g class="link-layer"><path class="link" style="stroke: rgb(31, 119, 180); stroke-width: 2; fill: none;" d="M 8.48888889 0.00000000 C 8.48888889 -20.00000000 18.00000000 -20.00000000 18.00000000 -40.00000000" /><path class="link" style="stroke: rgb(31, 119, 180); stroke-width: 2; fill: none;" d="M 195.24444444 0.00000000 C 195.24444444 -20.00000000 162.00000000 -20.00000000 162.00000000 -40.00000000" /><path class="link" style="stroke: rgb(31, 119, 180); stroke-width: 2; fill: none;" d="M 203.73333333 0.00000000 C 203.73333333 -20.00000000 197.00000000 -20.00000000 197.00000000 -40.00000000" /><path class="link" style="stroke: rgb(31, 119, 180); stroke-width: 2; fill: none;" d="M 220.71111111 0.00000000 C 220.71111111 -20.00000000 233.00000000 -20.00000000 233.00000000 -40.00000000" /><path class="link" style="stroke: rgb(31, 119, 180); stroke-width: 2; fill: none;" d="M 246.17777778 0.00000000 C 246.17777778 -20.00000000 274.00000000 -20.00000000 274.00000000 -40.00000000" /><path class="link" style="stroke: rgb(31, 119, 180); stroke-width: 2; fill: none;" d="M 585.73333333 0.00000000 C 585.73333333 -20.00000000 586.00000000 -20.00000000 586.00000000 -40.00000000" /><path class="link" style="stroke: rgb(31, 119, 180); stroke-width: 2; fill: none;" d="M 670.62222222 0.00000000 C 670.62222222 -20.00000000 671.00000000 -20.00000000 671.00000000 -40.00000000" /><path class="link" style="stroke: rgb(255, 127, 14); stroke-width: 2; fill: none;" d="M 764.00000000 0.00000000 C 764.00000000 -20.00000000 748.00000000 -20.00000000 748.00000000 -40.00000000" /></g><g class="label-layer"><g class="label-g" transform="translate(0, -54)"><rect class="label-bg" rx="2" ry="2" width="36" height="14.0" style="fill:rgb(31, 119, 180);" /><text class="label-text" dy="0.85em" dx="0.15em" x="0" y="0" style="fill: rgb(255, 255, 255);">M&#252;ller</text></g><g class="label-g" transform="translate(146, -54)"><rect class="label-bg" rx="2" ry="2" width="31" height="14.0" style="fill:rgb(31, 119, 180);" /><text class="label-text" dy="0.85em" dx="0.15em" x="0" y="0" style="fill: rgb(255, 255, 255);">Klose</text></g><g class="label-g" transform="translate(180, -54)"><rect class="label-bg" rx="2" ry="2" width="33" height="14.0" style="fill:rgb(31, 119, 180);" /><text class="label-text" dy="0.85em" dx="0.15em" x="0" y="0" style="fill: rgb(255, 255, 255);">Kroos</text></g><g class="label-g" transform="translate(216, -54)"><rect class="label-bg" rx="2" ry="2" width="33" height="14.0" style="fill:rgb(31, 119, 180);" /><text class="label-text" dy="0.85em" dx="0.15em" x="0" y="0" style="fill: rgb(255, 255, 255);">Kroos</text></g><g class="label-g" transform="translate(252, -54)"><rect class="label-bg" rx="2" ry="2" width="44" height="14.0" style="fill:rgb(31, 119, 180);" /><text class="label-text" dy="0.85em" dx="0.15em" x="0" y="0" style="fill: rgb(255, 255, 255);">Khedira</text></g><g class="label-g" transform="translate(563, -54)"><rect class="label-bg" rx="2" ry="2" width="45" height="14.0" style="fill:rgb(31, 119, 180);" /><text class="label-text" dy="0.85em" dx="0.15em" x="0" y="0" style="fill: rgb(255, 255, 255);">Sch&#252;rrle</text></g><g class="label-g" transform="translate(648, -54)"><rect class="label-bg" rx="2" ry="2" width="45" height="14.0" style="fill:rgb(31, 119, 180);" /><text class="label-text" dy="0.85em" dx="0.15em" x="0" y="0" style="fill: rgb(255, 255, 255);">Sch&#252;rrle</text></g><g class="label-g" transform="translate(732, -54)"><rect class="label-bg" rx="2" ry="2" width="32" height="14.0" style="fill:rgb(255, 127, 14);" /><text class="label-text" dy="0.85em" dx="0.15em" x="0" y="0" style="fill: rgb(255, 255, 255);">Oscar</text></g></g><g class="dot-layer"><circle class="dot" r="3" style="fill: rgb(31, 119, 180);" cx="8.488888888888889" /><circle class="dot" r="3" style="fill: rgb(31, 119, 180);" cx="195.24444444444444" /><circle class="dot" r="3" style="fill: rgb(31, 119, 180);" cx="203.73333333333332" /><circle class="dot" r="3" style="fill: rgb(31, 119, 180);" cx="220.71111111111108" /><circle class="dot" r="3" style="fill: rgb(31, 119, 180);" cx="246.1777777777778" /><circle class="dot" r="3" style="fill: rgb(31, 119, 180);" cx="585.7333333333333" /><circle class="dot" r="3" style="fill: rgb(31, 119, 180);" cx="670.6222222222223" /><circle class="dot" r="3" style="fill: rgb(255, 127, 14);" cx="764.0" /></g></g></g></svg>