<svg width="804" height="160"><g transform="translate(20, 20)"><g class="dummy-layer" /><g class="main-layer" transform="translate(0, 110)"><g><line class="timeline" x2="764" style="stroke-width: 2px; stroke: #222;" /></g><g class="axis-layer"><g class="tick" transform="translate(0.0000000000000000, 0)" style="opacity: 1;"><line style="stroke-width: 1px; stroke: #222;" x2="0" y2="6" /><text style="text-anchor: middle;" x="0" y="9" dy=".71em">1975</text></g><g class="tick" transform="translate(84.8785592601606282, 0)" style="opacity: 1;"><line style="stroke-width: 1px; stroke: #222;" x2="0" y2="6" /><text style="text-anchor: middle;" x="0" y="9" dy=".71em">1980</text></g><g class="tick" transform="translate(169.8036018495984365, 0)" style="opacity: 1;"><line style="stroke-width: 1px; stroke: #222;" x2="0" y2="6" /><text style="text-anchor: middle;" x="0" y="9" dy=".71em">1985</text></g><g class="tick" transform="translate(254.6821611097590505, 0)" style="opacity: 1;"><line style="stroke-width: 1px; stroke: #222;" x2="0" y2="6" /><text style="text-anchor: middle;" x="0" y="9" dy=".71em">1990</text></g><g class="tick" transform="translate(339.5607203699196930, 0)" style="opacity: 1;"><line style="stroke-width: 1px; stroke: #222;" x2="0" y2="6" /><text style="text-anchor: middle;" x="0" y="9" dy=".71em">1995</text></g><g class="tick" transform="translate(424.4392796300803070, 0)" style="opacity: 1;"><line style="stroke-width: 1px; stroke: #222;" x2="0" y2="6" /><text style="text-anchor: middle;" x="0" y="9" dy=".71em">2000</text></g><g class="tick" transform="translate(509.3643222195181011, 0)" style="opacity: 1;"><line style="stroke-width: 1px; stroke: #222;" x2="0" y2="6" /><text style="text-anchor: middle;" x="0" y="9" dy=".71em">2005</text></g><g class="tick" transform="translate(594.2428814796787719, 0)" style="opacity: 1;"><line style="stroke-width: 1px; stroke: #222;" x2="0" y2="6" /><text style="text-anchor: middle;" x="0" y="9" dy=".71em">2010</text></g><g class="tick" transform="translate(679.1214407398393860, 0)" style="opacity: 1;"><line style="stroke-width: 1px; stroke: #222;" x2="0" y2="6" /><text style="text-anchor: middle;" x="0" y="9" dy=".71em">2015</text></g><g class="tick" transform="translate(764.0000000000000000, 0)" style="opacity: 1;"><line style="stroke-width: 1px; stroke: #222;" x2="0" y2="6" /><text style="text-anchor: middle;" x="0" y="9" dy=".71em">2020</text></g></g><g class="link-layer"><path class="link" style="stroke: rgb(127, 127, 127); stroke-width: 2; fill: none;" d="M 39.27647643 0.00000000 C 39.27647643 -20.00000000 39.00000000 -20.00000000 39.00000000 -40.00000000" /><path class="link" style="stroke: rgb(127, 127, 127); stroke-width: 2; fill: none;" d="M 89.85033869 0.00000000 C 89.85033869 -20.00000000 90.00000000 -20.00000000 90.00000000 -40.00000000 L 90.00000000 -59.00000000 C 90.00000000 -79.00000000 90.00000000 -79.00000000 90.00000000 -99.00000000" /><path class="link" style="stroke: rgb(127, 127, 127); stroke-width: 2; fill: none;" d="M 158.13434940 0.00000000 C 158.13434940 -20.00000000 158.00000000 -20.00000000 158.00000000 -40.00000000" /><path class="link" style="stroke: rgb(188, 189, 34); stroke-width: 2; fill: none;" d="M 412.49112720 0.00000000 C 412.49112720 -20.00000000 404.00000000 -20.00000000 404.00000000 -40.00000000 L 404.00000000 -59.00000000 C 404.00000000 -79.00000000 404.00000000 -79.00000000 404.00000000 -99.00000000" /><path class="link" style="stroke: rgb(188, 189, 34); stroke-width: 2; fill: none;" d="M 463.29740610 0.00000000 C 463.29740610 -20.00000000 463.00000000 -20.00000000 463.00000000 -40.00000000" /><path class="link" style="stroke: rgb(188, 189, 34); stroke-width: 2; fill: none;" d="M 514.38258498 0.00000000 C 514.38258498 -20.00000000 522.00000000 -20.00000000 522.00000000 -40.00000000 L 522.00000000 -59.00000000 C 522.00000000 -79.00000000 522.00000000 -79.00000000 522.00000000 -99.00000000" /><path class="link" style="stroke: rgb(23, 190, 207); stroke-width: 2; fill: none;" d="M 694.04258944 0.00000000 C 694.04258944 -20.00000000 694.00000000 -20.00000000 694.00000000 -40.00000000" /></g><g class="label-layer"><g class="label-g" transform="translate(4, -59)"><rect class="label-bg" rx="2" ry="2" width="70" height="19.0" style="fill:rgb(127, 127, 127);" /><text class="label-text" dy="0.85em" dx="0.15em" x="2" y="3" style="fill: rgb(255, 255, 255);">A New Hope</text></g><g class="label-g" transform="translate(23, -118)"><rect class="label-bg" rx="2" ry="2" width="134" height="19.0" style="fill:rgb(127, 127, 127);" /><text class="label-text" dy="0.85em" dx="0.15em" x="2" y="3" style="fill: rgb(255, 255, 255);">The Empire Strikes Back</text></g><g class="label-g" transform="translate(108, -59)"><rect class="label-bg" rx="2" ry="2" width="99" height="19.0" style="fill:rgb(127, 127, 127);" /><text class="label-text" dy="0.85em" dx="0.15em" x="2" y="3" style="fill: rgb(255, 255, 255);">Return of the Jedi</text></g><g class="label-g" transform="translate(345, -118)"><rect class="label-bg" rx="2" ry="2" width="118" height="19.0" style="fill:rgb(188, 189, 34);" /><text class="label-text" dy="0.85em" dx="0.15em" x="2" y="3" style="fill: rgb(255, 255, 255);">The Phantom Menace</text></g><g class="label-g" transform="translate(407, -59)"><rect class="label-bg" rx="2" ry="2" width="111" height="19.0" style="fill:rgb(188, 189, 34);" /><text class="label-text" dy="0.85em" dx="0.15em" x="2" y="3" style="fill: rgb(255, 255, 255);">Attack of the Clones</text></g><g class="label-g" transform="translate(469, -118)"><rect class="label-bg" rx="2" ry="2" width="106" height="19.0" style="fill:rgb(188, 189, 34);" /><text class="label-text" dy="0.85em" dx="0.15em" x="2" y="3" style="fill: rgb(255, 255, 255);">Revenge of the Sith</text></g><g class="label-g" transform="translate(641, -59)"><rect class="label-bg" rx="2" ry="2" width="105" height="19.0" style="fill:rgb(23, 190, 207);" /><text class="label-text" dy="0.85em" dx="0.15em" x="2" y="3" style="fill: rgb(255, 255, 255);">The Force Awakens</text></g></g><g class="dot-layer"><circle class="dot" r="3" style="fill: rgb(127, 127, 127);" cx="39.27647643384441" /><circle class="dot" r="3" style="fill: rgb(127, 127, 127);" cx="89.85033868743409" /><circle class="dot" r="3" style="fill: rgb(127, 127, 127);" cx="158.1343493956356" /><circle class="dot" r="3" style="fill: rgb(188, 189, 34);" cx="412.4911272004543" /><circle class="dot" r="3" style="fill: rgb(188, 189, 34);" cx="463.29740610042995" /><circle class="dot" r="3" style="fill: rgb(188, 189, 34);" cx="514.3825849760689" /><circle class="dot" r="3" style="fill: rgb(23, 190, 207);" cx="694.0425894378194" /></g></g></g></svg>